<svg width="869" height="2785" viewBox="0 0 869 2785" fill="none" xmlns="http://www.w3.org/2000/svg">
<path d="M239.333 6C239.087 6 238.856 6.06706 238.658 6.18391C238.584 5.51856 238.018 5 237.333 5C237.008 5 236.709 5.11784 236.476 5.31413C236.243 4.92644 235.818 4.66666 235.333 4.66666C235.091 4.66666 234.863 4.73175 234.667 4.84569V1.33334C234.667 0.597969 234.069 0 233.333 0C232.598 0 232 0.597969 232 1.33334V10.2546C232 10.4225 231.889 10.5088 231.842 10.5381C231.794 10.5674 231.666 10.6276 231.517 10.5527L229.377 9.48244C229.182 9.38478 228.963 9.33334 228.745 9.33334C227.967 9.33334 227.333 9.96681 227.333 10.7455V11C227.333 11.0924 227.372 11.1807 227.439 11.2438L231.286 14.8346C232.092 15.5859 233.142 16 234.243 16H236.333C238.723 16 240.667 14.056 240.667 11.6667V7.33334C240.667 6.59797 240.069 6 239.333 6ZM240 11.6667C240 13.6885 238.355 15.3333 236.333 15.3333H234.243C233.311 15.3333 232.423 14.9831 231.741 14.347L228 10.8552V10.7455C228 10.3343 228.334 10 228.745 10C228.86 10 228.976 10.0273 229.079 10.0788L231.219 11.1491C231.532 11.3057 231.895 11.2884 232.192 11.1055C232.489 10.9219 232.667 10.6038 232.667 10.2546V1.33334C232.667 0.965844 232.966 0.666687 233.333 0.666687C233.701 0.666687 234 0.965844 234 1.33334V6.33334C234 6.51759 234.149 6.66669 234.333 6.66669C234.517 6.66669 234.667 6.51759 234.667 6.33334V6C234.667 5.6325 234.966 5.33334 235.333 5.33334C235.701 5.33334 236 5.6325 236 6V6.33334C236 6.334 236 6.33466 236 6.33531V6.33563C236.001 6.51856 236.15 6.66669 236.333 6.66669C236.517 6.66669 236.667 6.51759 236.667 6.33334V6.32812C236.669 5.96322 236.968 5.66666 237.333 5.66666C237.701 5.66666 238 5.96581 238 6.33331V7.33331C238 7.51756 238.149 7.66666 238.333 7.66666C238.517 7.66666 238.667 7.51756 238.667 7.33331C238.667 6.96581 238.966 6.66666 239.333 6.66666C239.701 6.66666 240 6.96581 240 7.33334V11.6667Z" fill="black"/>
<path d="M866.333 8C866.087 8 865.856 8.06706 865.658 8.18391C865.584 7.51856 865.018 7 864.333 7C864.008 7 863.709 7.11784 863.476 7.31413C863.243 6.92644 862.818 6.66666 862.333 6.66666C862.091 6.66666 861.863 6.73175 861.667 6.84569V3.33334C861.667 2.59797 861.069 2 860.333 2C859.598 2 859 2.59797 859 3.33334V12.2546C859 12.4225 858.889 12.5088 858.842 12.5381C858.794 12.5674 858.666 12.6276 858.517 12.5527L856.377 11.4824C856.182 11.3848 855.963 11.3333 855.745 11.3333C854.967 11.3333 854.333 11.9668 854.333 12.7455V13C854.333 13.0924 854.372 13.1807 854.439 13.2438L858.286 16.8346C859.092 17.5859 860.142 18 861.243 18H863.333C865.723 18 867.667 16.056 867.667 13.6667V9.33334C867.667 8.59797 867.069 8 866.333 8ZM867 13.6667C867 15.6885 865.355 17.3333 863.333 17.3333H861.243C860.311 17.3333 859.423 16.9831 858.741 16.347L855 12.8552V12.7455C855 12.3343 855.334 12 855.745 12C855.86 12 855.976 12.0273 856.079 12.0788L858.219 13.1491C858.532 13.3057 858.895 13.2884 859.192 13.1055C859.489 12.9219 859.667 12.6038 859.667 12.2546V3.33334C859.667 2.96584 859.966 2.66669 860.333 2.66669C860.701 2.66669 861 2.96584 861 3.33334V8.33334C861 8.51759 861.149 8.66669 861.333 8.66669C861.517 8.66669 861.667 8.51759 861.667 8.33334V8C861.667 7.6325 861.966 7.33334 862.333 7.33334C862.701 7.33334 863 7.6325 863 8V8.33334C863 8.334 863 8.33466 863 8.33531V8.33563C863.001 8.51856 863.15 8.66669 863.333 8.66669C863.517 8.66669 863.667 8.51759 863.667 8.33334V8.32812C863.669 7.96322 863.968 7.66666 864.333 7.66666C864.701 7.66666 865 7.96581 865 8.33331V9.33331C865 9.51756 865.149 9.66666 865.333 9.66666C865.517 9.66666 865.667 9.51756 865.667 9.33331C865.667 8.96581 865.966 8.66666 866.333 8.66666C866.701 8.66666 867 8.96581 867 9.33334V13.6667Z" fill="black"/>
<path d="M176.333 850C176.087 850 175.856 850.067 175.658 850.184C175.584 849.519 175.018 849 174.333 849C174.008 849 173.709 849.118 173.476 849.314C173.243 848.926 172.818 848.667 172.333 848.667C172.091 848.667 171.863 848.732 171.667 848.846V845.333C171.667 844.598 171.069 844 170.333 844C169.598 844 169 844.598 169 845.333V854.255C169 854.423 168.889 854.509 168.842 854.538C168.794 854.567 168.666 854.628 168.517 854.553L166.377 853.482C166.182 853.385 165.963 853.333 165.745 853.333C164.967 853.333 164.333 853.967 164.333 854.745V855C164.333 855.092 164.372 855.181 164.439 855.244L168.286 858.835C169.092 859.586 170.142 860 171.243 860H173.333C175.723 860 177.667 858.056 177.667 855.667V851.333C177.667 850.598 177.069 850 176.333 850ZM177 855.667C177 857.688 175.355 859.333 173.333 859.333H171.243C170.311 859.333 169.423 858.983 168.741 858.347L165 854.855V854.745C165 854.334 165.334 854 165.745 854C165.86 854 165.976 854.027 166.079 854.079L168.219 855.149C168.532 855.306 168.895 855.288 169.192 855.105C169.489 854.922 169.667 854.604 169.667 854.255V845.333C169.667 844.966 169.966 844.667 170.333 844.667C170.701 844.667 171 844.966 171 845.333V850.333C171 850.518 171.149 850.667 171.333 850.667C171.517 850.667 171.667 850.518 171.667 850.333V850C171.667 849.633 171.966 849.333 172.333 849.333C172.701 849.333 173 849.633 173 850V850.333C173 850.334 173 850.335 173 850.335V850.336C173.001 850.519 173.15 850.667 173.333 850.667C173.517 850.667 173.667 850.518 173.667 850.333V850.328C173.669 849.963 173.968 849.667 174.333 849.667C174.701 849.667 175 849.966 175 850.333V851.333C175 851.518 175.149 851.667 175.333 851.667C175.517 851.667 175.667 851.518 175.667 851.333C175.667 850.966 175.966 850.667 176.333 850.667C176.701 850.667 177 850.966 177 851.333V855.667Z" fill="black"/>
<path d="M13.3333 2140C13.0872 2140 12.8564 2140.07 12.6581 2140.18C12.5836 2139.52 12.0178 2139 11.3333 2139C11.0077 2139 10.7086 2139.12 10.4762 2139.31C10.2428 2138.93 9.81794 2138.67 9.33325 2138.67C9.09075 2138.67 8.86288 2138.73 8.6666 2138.85V2135.33C8.66656 2134.6 8.0686 2134 7.33325 2134C6.59791 2134 5.99991 2134.6 5.99991 2135.33V2144.25C5.99991 2144.42 5.88922 2144.51 5.84169 2144.54C5.79416 2144.57 5.66622 2144.63 5.51747 2144.55L3.37685 2143.48C3.18185 2143.38 2.96344 2143.33 2.74535 2143.33C1.96669 2143.33 1.33325 2143.97 1.33325 2144.75V2145C1.33325 2145.09 1.37166 2145.18 1.43903 2145.24L5.28638 2148.83C6.09169 2149.59 7.14185 2150 8.24306 2150H10.3332C12.7225 2150 14.6666 2148.06 14.6666 2145.67V2141.33C14.6666 2140.6 14.0686 2140 13.3333 2140ZM13.9999 2145.67C13.9999 2147.69 12.3551 2149.33 10.3333 2149.33H8.2431C7.31144 2149.33 6.42278 2148.98 5.74147 2148.35L1.99991 2144.86V2144.75C1.99991 2144.33 2.33422 2144 2.74535 2144C2.86025 2144 2.97581 2144.03 3.07869 2144.08L5.21931 2145.15C5.5315 2145.31 5.89541 2145.29 6.19228 2145.11C6.48916 2144.92 6.66656 2144.6 6.66656 2144.25V2135.33C6.66656 2134.97 6.96572 2134.67 7.33322 2134.67C7.70072 2134.67 7.99988 2134.97 7.99988 2135.33V2140.33C7.99988 2140.52 8.14897 2140.67 8.33322 2140.67C8.51747 2140.67 8.66656 2140.52 8.66656 2140.33V2140C8.66656 2139.63 8.96572 2139.33 9.33322 2139.33C9.70072 2139.33 9.99988 2139.63 9.99988 2140V2140.33C9.99988 2140.33 9.99988 2140.33 9.99988 2140.34V2140.34C10.0012 2140.52 10.1499 2140.67 10.3332 2140.67C10.5175 2140.67 10.6666 2140.52 10.6666 2140.33V2140.33C10.6692 2139.96 10.968 2139.67 11.3332 2139.67C11.7007 2139.67 11.9999 2139.97 11.9999 2140.33V2141.33C11.9999 2141.52 12.149 2141.67 12.3332 2141.67C12.5175 2141.67 12.6666 2141.52 12.6666 2141.33C12.6666 2140.97 12.9657 2140.67 13.3332 2140.67C13.7007 2140.67 13.9999 2140.97 13.9999 2141.33V2145.67Z" fill="black"/>
<path d="M709.333 2503C709.087 2503 708.856 2503.07 708.658 2503.18C708.584 2502.52 708.018 2502 707.333 2502C707.008 2502 706.709 2502.12 706.476 2502.31C706.243 2501.93 705.818 2501.67 705.333 2501.67C705.091 2501.67 704.863 2501.73 704.667 2501.85V2498.33C704.667 2497.6 704.069 2497 703.333 2497C702.598 2497 702 2497.6 702 2498.33V2507.25C702 2507.42 701.889 2507.51 701.842 2507.54C701.794 2507.57 701.666 2507.63 701.517 2507.55L699.377 2506.48C699.182 2506.38 698.963 2506.33 698.745 2506.33C697.967 2506.33 697.333 2506.97 697.333 2507.75V2508C697.333 2508.09 697.372 2508.18 697.439 2508.24L701.286 2511.83C702.092 2512.59 703.142 2513 704.243 2513H706.333C708.723 2513 710.667 2511.06 710.667 2508.67V2504.33C710.667 2503.6 710.069 2503 709.333 2503ZM710 2508.67C710 2510.69 708.355 2512.33 706.333 2512.33H704.243C703.311 2512.33 702.423 2511.98 701.741 2511.35L698 2507.86V2507.75C698 2507.33 698.334 2507 698.745 2507C698.86 2507 698.976 2507.03 699.079 2507.08L701.219 2508.15C701.532 2508.31 701.895 2508.29 702.192 2508.11C702.489 2507.92 702.667 2507.6 702.667 2507.25V2498.33C702.667 2497.97 702.966 2497.67 703.333 2497.67C703.701 2497.67 704 2497.97 704 2498.33V2503.33C704 2503.52 704.149 2503.67 704.333 2503.67C704.517 2503.67 704.667 2503.52 704.667 2503.33V2503C704.667 2502.63 704.966 2502.33 705.333 2502.33C705.701 2502.33 706 2502.63 706 2503V2503.33C706 2503.33 706 2503.33 706 2503.34C706.001 2503.52 706.15 2503.67 706.333 2503.67C706.517 2503.67 706.667 2503.52 706.667 2503.33V2503.33C706.669 2502.96 706.968 2502.67 707.333 2502.67C707.701 2502.67 708 2502.97 708 2503.33V2504.33C708 2504.52 708.149 2504.67 708.333 2504.67C708.517 2504.67 708.667 2504.52 708.667 2504.33C708.667 2503.97 708.966 2503.67 709.333 2503.67C709.701 2503.67 710 2503.97 710 2504.33V2508.67Z" fill="black"/>
<path d="M438.333 2775C438.087 2775 437.856 2775.07 437.658 2775.18C437.584 2774.52 437.018 2774 436.333 2774C436.008 2774 435.709 2774.12 435.476 2774.31C435.243 2773.93 434.818 2773.67 434.333 2773.67C434.091 2773.67 433.863 2773.73 433.667 2773.85V2770.33C433.667 2769.6 433.069 2769 432.333 2769C431.598 2769 431 2769.6 431 2770.33V2779.25C431 2779.42 430.889 2779.51 430.842 2779.54C430.794 2779.57 430.666 2779.63 430.517 2779.55L428.377 2778.48C428.182 2778.38 427.963 2778.33 427.745 2778.33C426.967 2778.33 426.333 2778.97 426.333 2779.75V2780C426.333 2780.09 426.372 2780.18 426.439 2780.24L430.286 2783.83C431.092 2784.59 432.142 2785 433.243 2785H435.333C437.723 2785 439.667 2783.06 439.667 2780.67V2776.33C439.667 2775.6 439.069 2775 438.333 2775ZM439 2780.67C439 2782.69 437.355 2784.33 435.333 2784.33H433.243C432.311 2784.33 431.423 2783.98 430.741 2783.35L427 2779.86V2779.75C427 2779.33 427.334 2779 427.745 2779C427.86 2779 427.976 2779.03 428.079 2779.08L430.219 2780.15C430.532 2780.31 430.895 2780.29 431.192 2780.11C431.489 2779.92 431.667 2779.6 431.667 2779.25V2770.33C431.667 2769.97 431.966 2769.67 432.333 2769.67C432.701 2769.67 433 2769.97 433 2770.33V2775.33C433 2775.52 433.149 2775.67 433.333 2775.67C433.517 2775.67 433.667 2775.52 433.667 2775.33V2775C433.667 2774.63 433.966 2774.33 434.333 2774.33C434.701 2774.33 435 2774.63 435 2775V2775.33C435 2775.33 435 2775.33 435 2775.34C435.001 2775.52 435.15 2775.67 435.333 2775.67C435.517 2775.67 435.667 2775.52 435.667 2775.33V2775.33C435.669 2774.96 435.968 2774.67 436.333 2774.67C436.701 2774.67 437 2774.97 437 2775.33V2776.33C437 2776.52 437.149 2776.67 437.333 2776.67C437.517 2776.67 437.667 2776.52 437.667 2776.33C437.667 2775.97 437.966 2775.67 438.333 2775.67C438.701 2775.67 439 2775.97 439 2776.33V2780.67Z" fill="white"/>
</svg>
