<svg width="207" height="81" viewBox="0 0 207 81" fill="none" xmlns="http://www.w3.org/2000/svg">
<path d="M8.99609 13H6.93848V4.70801H2.95312V13H0.902344V3.04688H8.99609V13ZM13.2716 9.49316V13H11.2208V3.04688H15.1036C15.851 3.04688 16.5072 3.18359 17.0723 3.45703C17.642 3.73047 18.0795 4.12012 18.3848 4.62598C18.6902 5.12728 18.8429 5.69922 18.8429 6.3418C18.8429 7.31706 18.5079 8.08724 17.838 8.65234C17.1726 9.21289 16.2498 9.49316 15.0694 9.49316H13.2716ZM13.2716 7.83203H15.1036C15.6459 7.83203 16.0583 7.70443 16.3409 7.44922C16.628 7.19401 16.7716 6.82943 16.7716 6.35547C16.7716 5.86784 16.628 5.47363 16.3409 5.17285C16.0538 4.87207 15.6573 4.71712 15.1514 4.70801H13.2716V7.83203ZM26.6457 3.04688H28.7033V13H26.6457V6.38965L22.6603 13H20.6095V3.04688H22.6603V9.6709L26.6457 3.04688ZM38.7141 9.68457C38.6366 10.7555 38.2401 11.5986 37.5246 12.2139C36.8137 12.8291 35.8749 13.1367 34.7082 13.1367C33.4322 13.1367 32.4273 12.7083 31.6936 11.8516C30.9644 10.9902 30.5998 9.8099 30.5998 8.31055V7.70215C30.5998 6.74512 30.7685 5.90202 31.1057 5.17285C31.4429 4.44368 31.9237 3.88542 32.5481 3.49805C33.177 3.10612 33.9062 2.91016 34.7356 2.91016C35.884 2.91016 36.8092 3.21777 37.511 3.83301C38.2128 4.44824 38.6184 5.31185 38.7278 6.42383H36.677C36.6269 5.78125 36.4468 5.31641 36.137 5.0293C35.8316 4.73763 35.3645 4.5918 34.7356 4.5918C34.052 4.5918 33.5393 4.83789 33.1975 5.33008C32.8603 5.81771 32.6871 6.5765 32.678 7.60645V8.3584C32.678 9.43392 32.8398 10.2201 33.1633 10.7168C33.4914 11.2135 34.0064 11.4619 34.7082 11.4619C35.3417 11.4619 35.8134 11.3184 36.1233 11.0312C36.4377 10.7396 36.6177 10.2907 36.6633 9.68457H38.7141ZM48.6566 8.24902C48.6566 9.22884 48.4834 10.0879 48.137 10.8262C47.7907 11.5645 47.2939 12.1341 46.6468 12.5352C46.0042 12.9362 45.2659 13.1367 44.432 13.1367C43.6071 13.1367 42.8711 12.9385 42.2239 12.542C41.5768 12.1455 41.0755 11.5804 40.72 10.8467C40.3646 10.1084 40.1846 9.26074 40.18 8.30371V7.81152C40.18 6.83171 40.3555 5.97038 40.7064 5.22754C41.0618 4.48014 41.5609 3.9082 42.2034 3.51172C42.8506 3.11068 43.5889 2.91016 44.4183 2.91016C45.2477 2.91016 45.9837 3.11068 46.6263 3.51172C47.2734 3.9082 47.7724 4.48014 48.1234 5.22754C48.4788 5.97038 48.6566 6.82943 48.6566 7.80469V8.24902ZM46.5784 7.79785C46.5784 6.75423 46.3916 5.96126 46.0179 5.41895C45.6442 4.87663 45.111 4.60547 44.4183 4.60547C43.7301 4.60547 43.1992 4.87435 42.8255 5.41211C42.4518 5.94531 42.2627 6.72917 42.2581 7.76367V8.24902C42.2581 9.2653 42.445 10.0537 42.8187 10.6143C43.1924 11.1748 43.7301 11.4551 44.432 11.4551C45.1201 11.4551 45.6488 11.1862 46.0179 10.6484C46.387 10.1061 46.5739 9.31771 46.5784 8.2832V7.79785ZM56.5551 8.68652H52.6176V11.3525H57.2387V13H50.5668V3.04688H57.225V4.70801H52.6176V7.08008H56.5551V8.68652ZM68.0903 15.4473H66.1968V13H60.1948V15.4404H58.2534L58.144 11.3525H58.896C59.3016 11.0153 59.6138 10.5208 59.8325 9.86914C60.0558 9.21289 60.2062 8.40169 60.2837 7.43555L60.5708 3.04688H67.0923V11.3525H68.2544L68.0903 15.4473ZM61.2475 11.3525H65.0415V4.70801H62.519L62.3481 7.32617C62.2114 9.08073 61.8445 10.4229 61.2475 11.3525ZM75.7222 3.04688H77.7798V13H75.7222V6.38965L71.7369 13H69.6861V3.04688H71.7369V9.6709L75.7222 3.04688ZM88.0778 13H86.027V8.73438H82.028V13H79.9772V3.04688H82.028V7.08008H86.027V3.04688H88.0778V13ZM94.8962 13V9.41113H93.2282L91.4304 13H89.2155L91.3415 8.75488C90.3161 8.18978 89.8034 7.3125 89.8034 6.12305C89.8034 5.14779 90.1224 4.39355 90.7605 3.86035C91.3985 3.32715 92.2894 3.05599 93.4333 3.04688H96.9538V13H94.8962ZM91.8542 6.27344C91.8542 6.82943 91.9887 7.23275 92.2575 7.4834C92.531 7.73405 92.9389 7.85938 93.4812 7.85938H94.8962V4.70801H93.4812C92.3965 4.70801 91.8542 5.22982 91.8542 6.27344ZM105.037 3.04688H107.095V13H105.037V6.38965L101.052 13H99.0008V3.04688H101.052V9.6709L105.037 3.04688ZM105.433 0.428711C105.433 1.03483 105.215 1.52474 104.777 1.89844C104.344 2.27214 103.775 2.45898 103.068 2.45898C102.362 2.45898 101.79 2.27441 101.352 1.90527C100.919 1.53613 100.703 1.04395 100.703 0.428711H102.104C102.104 0.71582 102.189 0.939128 102.357 1.09863C102.53 1.25358 102.767 1.33105 103.068 1.33105C103.364 1.33105 103.597 1.25358 103.765 1.09863C103.934 0.939128 104.018 0.71582 104.018 0.428711H105.433ZM116.784 4.70801H113.735V13H111.684V4.70801H108.677V3.04688H116.784V4.70801ZM124.368 8.68652H120.431V11.3525H125.052V13H118.38V3.04688H125.038V4.70801H120.431V7.08008H124.368V8.68652ZM134.488 9.68457C134.411 10.7555 134.014 11.5986 133.299 12.2139C132.588 12.8291 131.649 13.1367 130.482 13.1367C129.206 13.1367 128.202 12.7083 127.468 11.8516C126.739 10.9902 126.374 9.8099 126.374 8.31055V7.70215C126.374 6.74512 126.543 5.90202 126.88 5.17285C127.217 4.44368 127.698 3.88542 128.322 3.49805C128.951 3.10612 129.68 2.91016 130.51 2.91016C131.658 2.91016 132.583 3.21777 133.285 3.83301C133.987 4.44824 134.393 5.31185 134.502 6.42383H132.451C132.401 5.78125 132.221 5.31641 131.911 5.0293C131.606 4.73763 131.139 4.5918 130.51 4.5918C129.826 4.5918 129.314 4.83789 128.972 5.33008C128.634 5.81771 128.461 6.5765 128.452 7.60645V8.3584C128.452 9.43392 128.614 10.2201 128.938 10.7168C129.266 11.2135 129.781 11.4619 130.482 11.4619C131.116 11.4619 131.588 11.3184 131.897 11.0312C132.212 10.7396 132.392 10.2907 132.438 9.68457H134.488ZM138.306 6.63574H139.905C141.077 6.63574 142.004 6.92057 142.688 7.49023C143.376 8.05534 143.72 8.81868 143.72 9.78027C143.72 10.7464 143.378 11.5234 142.694 12.1113C142.015 12.6947 141.111 12.9909 139.981 13H136.241V3.04688H138.306V6.63574ZM138.306 8.29004V11.3525H139.94C140.464 11.3525 140.881 11.209 141.191 10.9219C141.505 10.6348 141.662 10.2497 141.662 9.7666C141.662 9.31543 141.512 8.95996 141.211 8.7002C140.915 8.43587 140.507 8.29915 139.987 8.29004H138.306Z" fill="white"/>
<path d="M207 59C207 65.0751 204.538 70.5751 200.556 74.5564C196.575 78.5376 191.075 81 185 81C178.925 81 173.425 78.5376 169.444 74.5564C165.462 70.5751 163 65.0751 163 59C163 52.9249 165.462 47.4249 169.444 43.4437C173.425 39.4624 178.925 37 185 37C191.075 37 196.575 39.4624 200.556 43.4437C204.538 47.4249 207 52.9249 207 59Z" fill="white" fill-opacity="0.1"/>
<g clip-path="url(#clip0)">
<path d="M194.995 69.0001V68.9993H195V61.6643C195 58.0759 194.228 55.3118 190.033 55.3118C188.016 55.3118 186.663 56.4184 186.11 57.4676H186.052V55.6468H182.074V68.9993H186.216V62.3876C186.216 60.6468 186.546 58.9634 188.702 58.9634C190.826 58.9634 190.858 60.9501 190.858 62.4993V69.0001H194.995Z" fill="white"/>
<path d="M175.33 55.6475H179.477V69H175.33V55.6475Z" fill="white"/>
<path d="M177.402 49C176.076 49 175 50.0758 175 51.4017C175 52.7275 176.076 53.8258 177.402 53.8258C178.727 53.8258 179.803 52.7275 179.803 51.4017C179.802 50.0758 178.727 49 177.402 49V49Z" fill="white"/>
</g>
<path d="M153 59C153 65.0751 150.538 70.5751 146.556 74.5564C142.575 78.5376 137.075 81 131 81C124.925 81 119.425 78.5376 115.444 74.5564C111.462 70.5751 109 65.0751 109 59C109 52.9249 111.462 47.4249 115.444 43.4437C119.425 39.4624 124.925 37 131 37C137.075 37 142.575 39.4624 146.556 43.4437C150.538 47.4249 153 52.9249 153 59Z" fill="white" fill-opacity="0.1"/>
<g clip-path="url(#clip1)">
<path d="M134.331 52.3208H136.157V49.1408C135.842 49.0975 134.758 49 133.497 49C130.864 49 129.061 50.6558 129.061 53.6992V56.5H126.156V60.055H129.061V69H132.622V60.0558H135.41L135.852 56.5008H132.622V54.0517C132.622 53.0242 132.899 52.3208 134.331 52.3208Z" fill="white"/>
</g>
<path d="M99 59C99 65.0751 96.5376 70.5751 92.5564 74.5564C88.5751 78.5376 83.0751 81 77 81C70.9249 81 65.4249 78.5376 61.4437 74.5564C57.4624 70.5751 55 65.0751 55 59C55 52.9249 57.4624 47.4249 61.4437 43.4437C65.4249 39.4624 70.9249 37 77 37C83.0751 37 88.5751 39.4624 92.5564 43.4437C96.5376 47.4249 99 52.9249 99 59Z" fill="#2196F3"/>
<g clip-path="url(#clip2)">
<path d="M87 52.7988C86.2563 53.125 85.4637 53.3412 84.6375 53.4462C85.4875 52.9388 86.1363 52.1412 86.4412 51.18C85.6488 51.6525 84.7738 51.9863 83.8412 52.1725C83.0887 51.3713 82.0162 50.875 80.8462 50.875C78.5763 50.875 76.7487 52.7175 76.7487 54.9763C76.7487 55.3012 76.7762 55.6137 76.8438 55.9112C73.435 55.745 70.4188 54.1113 68.3925 51.6225C68.0387 52.2363 67.8313 52.9388 67.8313 53.695C67.8313 55.115 68.5625 56.3737 69.6525 57.1025C68.9937 57.09 68.3475 56.8988 67.8 56.5975C67.8 56.61 67.8 56.6262 67.8 56.6425C67.8 58.635 69.2212 60.29 71.085 60.6712C70.7512 60.7625 70.3875 60.8062 70.01 60.8062C69.7475 60.8062 69.4825 60.7913 69.2337 60.7362C69.765 62.36 71.2725 63.5538 73.065 63.5925C71.67 64.6838 69.8988 65.3412 67.9813 65.3412C67.645 65.3412 67.3225 65.3263 67 65.285C68.8162 66.4563 70.9688 67.125 73.29 67.125C80.835 67.125 84.96 60.875 84.96 55.4575C84.96 55.2762 84.9538 55.1013 84.945 54.9275C85.7588 54.35 86.4425 53.6288 87 52.7988Z" fill="white"/>
</g>
<path d="M44 59C44 65.0751 41.5376 70.5751 37.5564 74.5564C33.5751 78.5376 28.0751 81 22 81C15.9249 81 10.4249 78.5376 6.44365 74.5564C2.46243 70.5751 0 65.0751 0 59C0 52.9249 2.46243 47.4249 6.44365 43.4437C10.4249 39.4624 15.9249 37 22 37C28.0751 37 33.5751 39.4624 37.5564 43.4437C41.5376 47.4249 44 52.9249 44 59Z" fill="white" fill-opacity="0.1"/>
<g clip-path="url(#clip3)">
<path d="M31.9804 54.8801C31.9336 53.8174 31.7617 53.0868 31.5156 52.4537C31.2616 51.7818 30.8709 51.1801 30.359 50.68C29.8589 50.1721 29.2533 49.7774 28.5891 49.5274C27.9524 49.2813 27.2256 49.1094 26.163 49.0626C25.0924 49.0118 24.7525 49 22.0371 49C19.3217 49 18.9818 49.0118 17.9152 49.0586C16.8525 49.1055 16.1219 49.2775 15.489 49.5235C14.8169 49.7774 14.2153 50.1681 13.7152 50.68C13.2073 51.1801 12.8127 51.7857 12.5626 52.4499C12.3164 53.0868 12.1446 53.8134 12.0977 54.8761C12.0469 55.9467 12.0352 56.2866 12.0352 59.002C12.0352 61.7173 12.0469 62.0572 12.0938 63.1239C12.1406 64.1865 12.3126 64.9171 12.5588 65.5502C12.8127 66.2221 13.2073 66.8238 13.7152 67.3239C14.2153 67.8318 14.8209 68.2265 15.4851 68.4765C16.1219 68.7226 16.8486 68.8945 17.9114 68.9413C18.9779 68.9883 19.3179 68.9999 22.0333 68.9999C24.7487 68.9999 25.0885 68.9883 26.1552 68.9413C27.2179 68.8945 27.9484 68.7226 28.5813 68.4765C29.9254 67.9568 30.9881 66.8941 31.5078 65.5502C31.7538 64.9133 31.9258 64.1865 31.9727 63.1239C32.0195 62.0572 32.0313 61.7173 32.0313 59.002C32.0313 56.2866 32.0273 55.9467 31.9804 54.8801ZM30.1794 63.0457C30.1364 64.0225 29.9723 64.5499 29.8356 64.9015C29.4995 65.7728 28.808 66.4643 27.9367 66.8004C27.5851 66.9372 27.0538 67.1012 26.0809 67.1441C25.026 67.1911 24.7096 67.2027 22.0411 67.2027C19.3726 67.2027 19.0522 67.1911 18.0011 67.1441C17.0244 67.1012 16.4969 66.9372 16.1453 66.8004C15.7117 66.6402 15.317 66.3862 14.9967 66.0541C14.6646 65.7298 14.4106 65.3391 14.2504 64.9055C14.1137 64.5539 13.9496 64.0225 13.9067 63.0497C13.8597 61.9948 13.8481 61.6783 13.8481 59.0097C13.8481 56.3412 13.8597 56.0209 13.9067 54.9699C13.9496 53.9932 14.1137 53.4657 14.2504 53.1141C14.4106 52.6804 14.6646 52.2859 15.0007 51.9654C15.3248 51.6333 15.7155 51.3793 16.1493 51.2192C16.5009 51.0825 17.0323 50.9184 18.0051 50.8754C19.06 50.8285 19.3765 50.8168 22.0449 50.8168C24.7174 50.8168 25.0337 50.8285 26.0848 50.8754C27.0616 50.9184 27.589 51.0825 27.9407 51.2192C28.3742 51.3793 28.7689 51.6333 29.0893 51.9654C29.4213 52.2897 29.6753 52.6804 29.8356 53.1141C29.9723 53.4657 30.1364 53.997 30.1794 54.9699C30.2263 56.0248 30.238 56.3412 30.238 59.0097C30.238 61.6783 30.2263 61.9908 30.1794 63.0457Z" fill="white"/>
<path d="M22.0371 53.8643C19.2007 53.8643 16.8994 56.1654 16.8994 59.002C16.8994 61.8385 19.2007 64.1397 22.0371 64.1397C24.8737 64.1397 27.1749 61.8385 27.1749 59.002C27.1749 56.1654 24.8737 53.8643 22.0371 53.8643ZM22.0371 62.3347C20.197 62.3347 18.7044 60.8422 18.7044 59.002C18.7044 57.1617 20.197 55.6693 22.0371 55.6693C23.8774 55.6693 25.3698 57.1617 25.3698 59.002C25.3698 60.8422 23.8774 62.3347 22.0371 62.3347Z" fill="white"/>
<path d="M28.5775 53.6611C28.5775 54.3235 28.0404 54.8605 27.3779 54.8605C26.7155 54.8605 26.1785 54.3235 26.1785 53.6611C26.1785 52.9986 26.7155 52.4617 27.3779 52.4617C28.0404 52.4617 28.5775 52.9986 28.5775 53.6611Z" fill="white"/>
</g>
<defs>
<clipPath id="clip0">
<rect x="175" y="49" width="20" height="20" fill="white"/>
</clipPath>
<clipPath id="clip1">
<rect x="121" y="49" width="20" height="20" fill="white"/>
</clipPath>
<clipPath id="clip2">
<rect x="67" y="49" width="20" height="20" fill="white"/>
</clipPath>
<clipPath id="clip3">
<rect x="12" y="49" width="20" height="20" fill="white"/>
</clipPath>
</defs>
</svg>
